<svg width="40" height="40" viewBox="0 0 40 40" fill="none" xmlns="http://www.w3.org/2000/svg">
<rect width="40" height="40" rx="11" fill="black"/>
<path d="M24.6647 25.3581C23.7601 26.2024 22.7724 26.0691 21.8217 25.6691C20.8156 25.2603 19.8925 25.2425 18.831 25.6691C17.5018 26.2202 16.8003 26.0602 16.0065 25.3581C11.502 20.8875 12.1666 14.0795 17.2803 13.8306C18.5264 13.8928 19.3941 14.4883 20.1233 14.5416C21.2125 14.3283 22.2555 13.7151 23.4186 13.7951C24.8124 13.9017 25.8646 14.435 26.5569 15.3949C23.677 17.0569 24.3601 20.7098 27 21.7319C26.4739 23.065 25.7908 24.3893 24.6554 25.367L24.6647 25.3581ZM20.031 13.7773C19.8925 11.7953 21.5632 10.16 23.4832 10C23.7509 12.293 21.3232 13.9995 20.031 13.7773Z" fill="white"/>
</svg>
