<svg width="14" height="12" viewBox="0 0 14 12" fill="none" xmlns="http://www.w3.org/2000/svg">
<path d="M0.875 0C1.35898 0 1.75 0.391016 1.75 0.875V10.0625C1.75 10.3031 1.94687 10.5 2.1875 10.5H13.125C13.609 10.5 14 10.891 14 11.375C14 11.859 13.609 12.25 13.125 12.25H2.1875C0.978906 12.25 0 11.2711 0 10.0625V0.875C0 0.391016 0.391016 0 0.875 0ZM3.5 2.625C3.5 2.14102 3.89102 1.75 4.375 1.75H9.625C10.109 1.75 10.5 2.14102 10.5 2.625C10.5 3.10898 10.109 3.5 9.625 3.5H4.375C3.89102 3.5 3.5 3.10898 3.5 2.625ZM4.375 4.375H7.875C8.35898 4.375 8.75 4.76602 8.75 5.25C8.75 5.73398 8.35898 6.125 7.875 6.125H4.375C3.89102 6.125 3.5 5.73398 3.5 5.25C3.5 4.76602 3.89102 4.375 4.375 4.375ZM4.375 7H11.375C11.859 7 12.25 7.39102 12.25 7.875C12.25 8.35898 11.859 8.75 11.375 8.75L5.5 9.875C5.01602 9.875 3.5 8.35898 3.5 7.875C3.5 7.39102 3.89102 7 4.375 7Z" fill="white"/>
</svg>
