<svg width="40" height="40" viewBox="0 0 40 40" fill="none" xmlns="http://www.w3.org/2000/svg">
<rect x="0.5" y="0.5" width="39" height="39" rx="10.5" fill="white"/>
<rect x="0.5" y="0.5" width="39" height="39" rx="10.5" stroke="#E7E7E7"/>
<path fill-rule="evenodd" clip-rule="evenodd" d="M27.68 20.1813C27.68 19.614 27.6291 19.0686 27.5345 18.5449H20V21.6395H24.3055C24.12 22.6395 23.5564 23.4867 22.7091 24.054V26.0613H25.2945C26.8073 24.6686 27.68 22.6176 27.68 20.1813Z" fill="#4285F4"/>
<path fill-rule="evenodd" clip-rule="evenodd" d="M20.0007 27.9995C22.1607 27.9995 23.9716 27.2832 25.2952 26.0613L22.7097 24.0541C21.9934 24.5341 21.077 24.8177 20.0007 24.8177C17.917 24.8177 16.1534 23.4104 15.5243 21.5195H12.8516V23.5923C14.1679 26.2068 16.8734 27.9995 20.0007 27.9995Z" fill="#34A853"/>
<path fill-rule="evenodd" clip-rule="evenodd" d="M15.5236 21.52C15.3636 21.04 15.2727 20.5272 15.2727 20C15.2727 19.4727 15.3636 18.96 15.5236 18.48V16.4072H12.8509C12.3091 17.4872 12 18.709 12 20C12 21.2909 12.3091 22.5127 12.8509 23.5927L15.5236 21.52Z" fill="#FBBC05"/>
<path fill-rule="evenodd" clip-rule="evenodd" d="M20.0007 15.1818C21.1752 15.1818 22.2297 15.5855 23.0588 16.3782L25.3534 14.0836C23.9679 12.7927 22.157 12 20.0007 12C16.8734 12 14.1679 13.7927 12.8516 16.4073L15.5243 18.48C16.1534 16.5891 17.917 15.1818 20.0007 15.1818Z" fill="#EA4335"/>
</svg>
