<svg width="18" height="18" viewBox="0 0 18 18" fill="none" xmlns="http://www.w3.org/2000/svg">
<g clip-path="url(#clip0_1280_32049)">
<path d="M3.96376 1.02652e-05C3.4429 -0.00117643 2.92694 0.100539 2.4455 0.299316C1.96406 0.498092 1.52662 0.790015 1.15832 1.15832C0.790015 1.52662 0.498092 1.96406 0.299316 2.4455C0.100539 2.92694 -0.00117643 3.4429 1.02652e-05 3.96376V14.0363C-0.00117643 14.5571 0.100539 15.0731 0.299316 15.5545C0.498092 16.036 0.790015 16.4734 1.15832 16.8417C1.52662 17.21 1.96406 17.5019 2.4455 17.7007C2.92694 17.8995 3.4429 18.0012 3.96376 18H14.0363C14.5571 18.0012 15.0731 17.8995 15.5545 17.7007C16.036 17.5019 16.4734 17.21 16.8417 16.8417C17.21 16.4734 17.5019 16.036 17.7007 15.5545C17.8995 15.0731 18.0012 14.5571 18 14.0363V3.96376C18.0012 3.4429 17.8995 2.92694 17.7007 2.4455C17.5019 1.96406 17.21 1.52662 16.8417 1.15832C16.4734 0.790015 16.036 0.498092 15.5545 0.299316C15.0731 0.100539 14.5571 -0.00117643 14.0363 1.02652e-05H3.96376ZM9.00001 3.11551C9.8677 3.11551 10.7269 3.25787 11.5285 3.53445C12.3301 3.81104 13.0585 4.21644 13.672 4.72749C14.2855 5.23855 14.7721 5.84526 15.1041 6.51297C15.4361 7.18068 15.6069 7.89631 15.6068 8.61901C15.6065 10.0783 14.9103 11.4778 13.6714 12.5096C12.4324 13.5414 10.7521 14.121 9.00001 14.121C8.36716 14.1202 7.73773 14.0437 7.13101 13.8938C6.34407 14.4153 5.42574 14.7759 4.44751 14.9475C4.95175 14.4601 5.34213 13.9138 5.60251 13.3313C4.625 12.8431 3.81575 12.1526 3.2534 11.3269C2.69105 10.5012 2.39474 9.56831 2.39326 8.61901C2.39314 7.89631 2.56394 7.18068 2.89591 6.51297C3.22788 5.84526 3.71451 5.23855 4.32801 4.72749C4.94152 4.21644 5.66988 3.81104 6.47151 3.53445C7.27313 3.25787 8.13232 3.11551 9.00001 3.11551Z" fill="#0BB016"/>
</g>
<defs>
<clipPath id="clip0_1280_32049">
<rect width="18" height="18" fill="white"/>
</clipPath>
</defs>
</svg>
