<svg width="16" height="17" viewBox="0 0 16 17" fill="none" xmlns="http://www.w3.org/2000/svg">
<path d="M7.88115 4.20732C5.64522 4.20732 3.8417 6.01084 3.8417 8.24678C3.8417 10.4827 5.64522 12.2862 7.88115 12.2862C10.1171 12.2862 11.9206 10.4827 11.9206 8.24678C11.9206 6.01084 10.1171 4.20732 7.88115 4.20732ZM7.88115 10.8729C6.43623 10.8729 5.25498 9.69522 5.25498 8.24678C5.25498 6.79834 6.43271 5.62061 7.88115 5.62061C9.32959 5.62061 10.5073 6.79834 10.5073 8.24678C10.5073 9.69522 9.32607 10.8729 7.88115 10.8729ZM13.028 4.04209C13.028 4.56592 12.6062 4.98428 12.0858 4.98428C11.562 4.98428 11.1437 4.5624 11.1437 4.04209C11.1437 3.52178 11.5655 3.0999 12.0858 3.0999C12.6062 3.0999 13.028 3.52178 13.028 4.04209ZM15.7034 4.99834C15.6437 3.73623 15.3554 2.61826 14.4308 1.69717C13.5097 0.776074 12.3917 0.487793 11.1296 0.424512C9.82881 0.350684 5.92998 0.350684 4.6292 0.424512C3.37061 0.484277 2.25264 0.772559 1.32803 1.69365C0.403418 2.61475 0.118652 3.73271 0.0553711 4.99482C-0.018457 6.29561 -0.018457 10.1944 0.0553711 11.4952C0.115137 12.7573 0.403418 13.8753 1.32803 14.7964C2.25264 15.7175 3.36709 16.0058 4.6292 16.069C5.92998 16.1429 9.82881 16.1429 11.1296 16.069C12.3917 16.0093 13.5097 15.721 14.4308 14.7964C15.3519 13.8753 15.6401 12.7573 15.7034 11.4952C15.7772 10.1944 15.7772 6.29912 15.7034 4.99834ZM14.0229 12.8909C13.7487 13.58 13.2179 14.1108 12.5253 14.3886C11.4882 14.7999 9.02725 14.705 7.88115 14.705C6.73506 14.705 4.27061 14.7964 3.23701 14.3886C2.54795 14.1144 2.01709 13.5835 1.73936 12.8909C1.32803 11.8538 1.42295 9.39287 1.42295 8.24678C1.42295 7.10068 1.33154 4.63623 1.73936 3.60264C2.01357 2.91357 2.54443 2.38271 3.23701 2.10498C4.27412 1.69365 6.73506 1.78857 7.88115 1.78857C9.02725 1.78857 11.4917 1.69717 12.5253 2.10498C13.2144 2.3792 13.7452 2.91006 14.0229 3.60264C14.4343 4.63975 14.3394 7.10068 14.3394 8.24678C14.3394 9.39287 14.4343 11.8573 14.0229 12.8909Z" fill="#EC4899"/>
</svg>
