<svg width="16" height="17" viewBox="0 0 16 17" fill="none" xmlns="http://www.w3.org/2000/svg">
<path d="M14.625 0.375H1.12148C0.502734 0.375 0 0.884766 0 1.51055V14.9895C0 15.6152 0.502734 16.125 1.12148 16.125H14.625C15.2437 16.125 15.75 15.6152 15.75 14.9895V1.51055C15.75 0.884766 15.2437 0.375 14.625 0.375ZM4.76016 13.875H2.42578V6.35859H4.76367V13.875H4.76016ZM3.59297 5.33203C2.84414 5.33203 2.23945 4.72383 2.23945 3.97852C2.23945 3.2332 2.84414 2.625 3.59297 2.625C4.33828 2.625 4.94648 3.2332 4.94648 3.97852C4.94648 4.72734 4.3418 5.33203 3.59297 5.33203ZM13.5105 13.875H11.1762V10.2188C11.1762 9.34688 11.1586 8.22539 9.96328 8.22539C8.74687 8.22539 8.56055 9.17461 8.56055 10.1555V13.875H6.22617V6.35859H8.46562V7.38516H8.49727C8.81016 6.79453 9.57305 6.17227 10.7086 6.17227C13.0711 6.17227 13.5105 7.72969 13.5105 9.75469V13.875Z" fill="#3B82F6"/>
</svg>
