<svg width="18" height="14" viewBox="0 0 18 14" fill="none" xmlns="http://www.w3.org/2000/svg">
<g clip-path="url(#clip0_1280_32065)">
<path d="M4.09092 13.9309V6.75613L1.93409 4.72047L0 3.59082V12.6648C0 13.3654 0.550195 13.9309 1.2273 13.9309H4.09092Z" fill="#4285F4"/>
<path d="M13.9082 13.9309H16.7718C17.451 13.9309 17.9991 13.3632 17.9991 12.6647V3.59082L15.8085 4.8847L13.9082 6.75605V13.9309Z" fill="#34A853"/>
<path d="M4.09036 6.75608L3.79688 3.95267L4.09036 1.26953L8.99944 5.06796L13.9085 1.26953L14.2368 3.80781L13.9085 6.75608L8.99944 10.5545L4.09036 6.75608Z" fill="#EA4335"/>
<path d="M13.9082 1.2697V6.75625L17.9991 3.59094V1.90274C17.9991 0.336993 16.2666 -0.555598 15.0537 0.383418L13.9082 1.2697Z" fill="#FBBC04"/>
<path d="M0 3.59097L1.88149 5.04683L4.09092 6.75628V1.26973L2.94539 0.383451C1.73039 -0.555637 0 0.337026 0 1.90271V3.59097Z" fill="#C5221F"/>
</g>
<defs>
<clipPath id="clip0_1280_32065">
<rect width="18" height="14" fill="white"/>
</clipPath>
</defs>
</svg>
