<svg width="18" height="18" viewBox="0 0 18 18" fill="none" xmlns="http://www.w3.org/2000/svg">
<path fill-rule="evenodd" clip-rule="evenodd" d="M3.75 0.75C2.95435 0.75 2.19129 1.06607 1.62868 1.62868C1.06607 2.19129 0.75 2.95435 0.75 3.75V14.25C0.75 15.0456 1.06607 15.8087 1.62868 16.3713C2.19129 16.9339 2.95435 17.25 3.75 17.25H14.25C15.0456 17.25 15.8087 16.9339 16.3713 16.3713C16.9339 15.8087 17.25 15.0456 17.25 14.25V3.75C17.25 2.95435 16.9339 2.19129 16.3713 1.62868C15.8087 1.06607 15.0456 0.75 14.25 0.75H3.75ZM3.4995 3.375C3.4174 3.40551 3.34356 3.45477 3.28386 3.51886C3.22416 3.58295 3.18025 3.6601 3.15563 3.74416C3.13101 3.82821 3.12636 3.91686 3.14205 4.00303C3.15774 4.0892 3.19333 4.17052 3.246 4.2405L7.4565 9.828L3.02025 14.5868L2.98725 14.625H4.5225L8.145 10.7408L10.929 14.4368C10.9936 14.5223 11.0813 14.5876 11.1818 14.625H14.4982C14.5802 14.5943 14.6539 14.5449 14.7135 14.4808C14.773 14.4166 14.8167 14.3395 14.8412 14.2554C14.8657 14.1714 14.8702 14.0828 14.8544 13.9967C14.8386 13.9106 14.8029 13.8294 14.7502 13.7595L10.5398 8.172L15.0128 3.375H13.4752L9.85275 7.26L7.06725 3.564C7.00276 3.47817 6.91506 3.41259 6.8145 3.375H3.4995ZM11.6595 13.536L4.82325 4.464H6.3375L13.173 13.5353L11.6595 13.536Z" fill="black"/>
</svg>
