<svg width="16" height="17" viewBox="0 0 16 17" fill="none" xmlns="http://www.w3.org/2000/svg">
<path d="M13.391 2.66367C11.918 1.18711 9.95625 0.375 7.87148 0.375C3.56836 0.375 0.0667969 3.87656 0.0667969 8.17969C0.0667969 9.5543 0.425391 10.8973 1.10742 12.082L0 16.125L4.13789 15.0387C5.27695 15.6609 6.56016 15.9879 7.86797 15.9879H7.87148C12.1711 15.9879 15.75 12.4863 15.75 8.1832C15.75 6.09844 14.8641 4.14023 13.391 2.66367ZM7.87148 14.673C6.7043 14.673 5.56172 14.3602 4.5668 13.7695L4.33125 13.6289L1.87734 14.2723L2.53125 11.8781L2.37656 11.632C1.72617 10.5984 1.38516 9.40664 1.38516 8.17969C1.38516 4.6043 4.29609 1.69336 7.875 1.69336C9.6082 1.69336 11.2359 2.36836 12.4594 3.59531C13.6828 4.82227 14.4352 6.45 14.4316 8.1832C14.4316 11.7621 11.4469 14.673 7.87148 14.673ZM11.4293 9.81445C11.2359 9.71602 10.2762 9.24492 10.0969 9.18164C9.91758 9.11484 9.7875 9.0832 9.65742 9.28008C9.52734 9.47695 9.15469 9.91289 9.03867 10.0465C8.92617 10.1766 8.81016 10.1941 8.6168 10.0957C7.4707 9.52266 6.71836 9.07266 5.9625 7.77539C5.76211 7.43086 6.16289 7.45547 6.53555 6.71016C6.59883 6.58008 6.56719 6.46758 6.51797 6.36914C6.46875 6.2707 6.07852 5.31094 5.9168 4.9207C5.75859 4.54102 5.59688 4.59375 5.47734 4.58672C5.36484 4.57969 5.23477 4.57969 5.10469 4.57969C4.97461 4.57969 4.76367 4.62891 4.58437 4.82227C4.40508 5.01914 3.90234 5.49023 3.90234 6.45C3.90234 7.40977 4.60195 8.33789 4.69688 8.46797C4.79531 8.59805 6.07148 10.5668 8.02969 11.4141C9.26719 11.9484 9.75234 11.9941 10.3711 11.9027C10.7473 11.8465 11.5242 11.4316 11.6859 10.9746C11.8477 10.5176 11.8477 10.1273 11.7984 10.0465C11.7527 9.95859 11.6227 9.90938 11.4293 9.81445Z" fill="#22C55E"/>
</svg>
